<svg width="40" height="60" viewBox="0 0 40 60" fill="none" xmlns="http://www.w3.org/2000/svg">
<path d="M22.2875 25.462C21.9625 25.1374 21.475 25.1374 21.15 25.462L1.73125 44.8606C0.75625 45.8345 0.75625 47.2955 1.73125 48.2695C2.70625 49.2435 4.16875 49.2435 5.14375 48.2695L24.5625 28.871C24.8875 28.5463 24.8875 28.0593 24.5625 27.7347C24.5625 27.7347 22.2875 25.462 22.2875 25.462ZM27.975 25.462L30.575 22.8647C31.0625 22.3777 31.0625 21.6472 30.575 21.1603L28.8688 19.4558C28.3813 18.9688 27.65 18.9688 27.1625 19.4558L24.5625 22.0531C24.2375 22.3777 24.2375 22.8647 24.5625 23.1894L26.8375 25.462C27.1625 25.7867 27.65 25.7867 27.975 25.462ZM7.825 17.8325C10.9125 18.8065 13.35 21.1602 14.325 24.3257C14.4875 24.8127 15.1375 24.8127 15.3 24.3257C16.275 21.2414 18.6312 18.8065 21.8 17.8325C22.2875 17.6701 22.2875 17.0208 21.8 16.8585C18.7125 15.8845 16.275 13.5307 15.3 10.3652C15.1375 9.87825 14.4875 9.87825 14.325 10.3652C13.35 13.4495 10.9938 15.8845 7.825 16.8585C7.41875 17.0208 7.41875 17.6701 7.825 17.8325ZM39.675 33.1727C36.9125 32.2799 34.8 30.1696 33.9063 27.41C33.7438 27.0042 33.175 27.0042 33.0125 27.41C32.1188 30.1696 30.0063 32.2799 27.2438 33.1727C26.8375 33.3351 26.8375 33.9032 27.2438 34.0656C30.0063 34.9584 32.1188 37.0687 33.0125 39.8283C33.175 40.2341 33.7438 40.2341 33.9063 39.8283C34.8 37.0687 36.9125 34.9584 39.675 34.0656C40.0813 33.9032 40.0813 33.2539 39.675 33.1727ZM30.4938 15.2352C32.6063 15.8845 34.15 17.4266 34.8 19.5369C34.8813 19.8616 35.3688 19.8616 35.45 19.5369C36.1 17.4266 37.6438 15.8845 39.7563 15.2352C40.0813 15.154 40.0813 14.667 39.7563 14.5858C37.6438 13.9365 36.1 12.3944 35.45 10.2841C35.3688 9.95942 34.8813 9.95942 34.8 10.2841C34.15 12.3944 32.6063 13.9365 30.4938 14.5858C30.1688 14.667 30.1688 15.154 30.4938 15.2352Z" fill="white"/>
</svg>
