<svg width="40" height="60" viewBox="0 0 40 60" fill="none" xmlns="http://www.w3.org/2000/svg">
<path fill-rule="evenodd" clip-rule="evenodd" d="M17.0792 53.2547L22.9284 52.7918C22.9284 54.4295 21.6179 55.863 20.0033 55.9907C18.3919 56.1195 17.0792 54.8902 17.0792 53.2547ZM14.1039 51.5353V50.2809C14.1039 49.8306 14.4811 49.4317 14.9488 49.395L24.8451 48.5678C25.3107 48.528 25.6912 48.8631 25.6912 49.3144V50.5678C25.6912 51.017 25.3107 51.417 24.8451 51.4536L14.9488 52.2798C14.4811 52.3196 14.1039 51.9856 14.1039 51.5353ZM14.1006 47.0925V45.0537C14.1006 44.6024 14.4811 44.2045 14.9477 44.1669L25.061 44.1082C25.5287 44.0705 25.9059 44.4045 25.9059 44.8538V46.1103C25.9059 46.5595 25.5287 46.9563 25.061 46.9951L14.9477 47.839C14.4811 47.8778 14.1006 47.5438 14.1006 47.0925ZM12.1578 39.8203L12.1163 39.6905C12.1098 39.4811 12.1022 39.2706 12.0924 39.0612L12.0542 38.9313C12.0367 38.3753 12.0106 37.8204 11.9746 37.2675C11.5102 31.9252 10.0481 26.6373 7.86106 21.3191H32.1379C29.9508 26.6373 28.4888 31.9252 28.0254 37.2675C27.9894 37.8204 27.9633 38.3753 27.9458 38.9313L27.9076 39.0612C27.8978 39.2706 27.8902 39.4811 27.8837 39.6905L27.8422 39.8203C27.3712 41.5805 25.8601 42.792 24.1408 42.792C24.0928 42.792 24.0263 42.792 23.9751 42.7889H16.0249C15.9737 42.792 15.9072 42.792 15.8592 42.792C14.1399 42.792 12.6288 41.5805 12.1578 39.8203ZM4.42674 13.9873C4.13128 13.4229 3.96665 12.758 4.0059 12.1266L4.00372 12.1213C3.86853 8.51615 7.43149 6.10991 12.7007 4.79265C14.6021 4.31099 17.2547 4.01047 19.9237 4H20.0752C22.7442 4.01047 25.3968 4.31099 27.2993 4.79265C32.5685 6.10991 36.1315 8.51615 35.9963 12.1213L35.9941 12.1266C36.0333 12.758 35.8687 13.4229 35.5733 13.9873C34.7806 15.5087 34.036 17.0239 33.347 18.5348H6.65196C5.96292 17.0239 5.21827 15.5087 4.42674 13.9873Z" fill="white"/>
</svg>
