<svg width="40" height="60" viewBox="0 0 40 60" fill="none" xmlns="http://www.w3.org/2000/svg">
<path fill-rule="evenodd" clip-rule="evenodd" d="M2 21.7222C2 16.3528 6.35279 12 11.7222 12H27.2778C32.6472 12 37 16.3528 37 21.7222V37.2778C37 42.6472 32.6472 47 27.2778 47H11.7222C6.35279 47 2 42.6472 2 37.2778V21.7222ZM19.5 37.2778C23.7955 37.2778 27.2778 33.7955 27.2778 29.5C27.2778 25.2045 23.7955 21.7222 19.5 21.7222C15.2045 21.7222 11.7222 25.2045 11.7222 29.5C11.7222 33.7955 15.2045 37.2778 19.5 37.2778ZM19.5 39.2222C24.8694 39.2222 29.2222 34.8694 29.2222 29.5C29.2222 24.1306 24.8694 19.7778 19.5 19.7778C14.1306 19.7778 9.77778 24.1306 9.77778 29.5C9.77778 34.8694 14.1306 39.2222 19.5 39.2222ZM14.1528 16.8611C14.9582 16.8611 15.6111 16.2082 15.6111 15.4028C15.6111 14.5974 14.9582 13.9444 14.1528 13.9444C13.3474 13.9444 12.6944 14.5974 12.6944 15.4028C12.6944 16.2082 13.3474 16.8611 14.1528 16.8611ZM20.8611 15.4028C20.8611 16.2082 20.2082 16.8611 19.4028 16.8611C18.5974 16.8611 17.9444 16.2082 17.9444 15.4028C17.9444 14.5974 18.5974 13.9444 19.4028 13.9444C20.2082 13.9444 20.8611 14.5974 20.8611 15.4028ZM24.8472 16.8611C25.6526 16.8611 26.3056 16.2082 26.3056 15.4028C26.3056 14.5974 25.6526 13.9444 24.8472 13.9444C24.0418 13.9444 23.3889 14.5974 23.3889 15.4028C23.3889 16.2082 24.0418 16.8611 24.8472 16.8611Z" fill="white"/>
</svg>
