<?xml version="1.0" encoding="utf-8"?>
<!-- Generator: Adobe Illustrator 25.1.0, SVG Export Plug-In . SVG Version: 6.00 Build 0)  -->
<svg version="1.1" id="Ebene_1" xmlns="http://www.w3.org/2000/svg" xmlns:xlink="http://www.w3.org/1999/xlink" x="0px" y="0px"
	 viewBox="0 0 40 60" style="enable-background:new 0 0 40 60;" xml:space="preserve">
<style type="text/css">
	.st0{fill-rule:evenodd;clip-rule:evenodd;fill:#FFFFFF;}
	.st1{fill:#FFFFFF;}
	.st2{fill:none;}
</style>
	<path class="st0" d="M2.6,11.5c-0.6,0-1,0.4-1,1v32c0,0.6,0.4,1,1,1h32c0.6,0,1-0.4,1-1v-32c0-0.6-0.4-1-1-1H2.6z M18.7,42.8
	c7.8,0,14.2-6.3,14.2-14.1s-6.3-14.1-14.2-14.1S4.5,20.9,4.5,28.7S10.9,42.8,18.7,42.8z"/>
	<circle class="st1" cx="18.6" cy="28.7" r="12.4"/>
	<line class="st2" x1="18.6" y1="16.3" x2="18.6" y2="41.2"/>
	<line class="st2" x1="6.2" y1="28.7" x2="31" y2="28.7"/>
</svg>