<?xml version="1.0" standalone="no"?>
<!DOCTYPE svg PUBLIC "-//W3C//DTD SVG 20010904//EN"
 "http://www.w3.org/TR/2001/REC-SVG-20010904/DTD/svg10.dtd">
<svg version="1.0" xmlns="http://www.w3.org/2000/svg"
 width="40.000000pt" height="50.000000pt" viewBox="0 0 40.000000 50.000000"
 preserveAspectRatio="xMidYMid meet">

<g transform="translate(0.000000,50.000000) scale(0.100000,-0.100000)"
fill="#FFFFFF" stroke="none">
<path d="M60 250 l0 -160 90 0 90 0 0 160 0 160 -90 0 -90 0 0 -160z m160 0
l0 -140 -65 0 -65 0 0 140 0 140 65 0 65 0 0 -140z"/>
<path d="M260 250 l0 -160 40 0 40 0 0 160 0 160 -40 0 -40 0 0 -160z"/>
</g>
</svg>
