<svg width="40" height="60" viewBox="0 0 40 60" fill="none" xmlns="http://www.w3.org/2000/svg">
<path d="M19.5363 21.5125C15.1069 21.5125 11.5125 25.1068 11.5125 29.5363C11.5125 33.9658 15.1069 37.5965 19.5363 37.5965C24.0021 37.5965 27.5965 33.9658 27.5965 29.5363C27.5965 25.1068 23.9658 21.5125 19.5363 21.5125ZM25.6359 29.5726C25.6359 32.6587 23.167 35.3091 20.0809 35.5996V23.5093C23.167 23.7998 25.6359 26.4502 25.6359 29.5726Z" fill="white"/>
<path d="M20.5166 40.2468H18.556V46.9999H20.5166V40.2468Z" fill="white"/>
<path d="M20.5166 12H18.556V18.7531H20.5166V12Z" fill="white"/>
<path d="M8.75311 28.5562H2V30.5167H8.75311V28.5562Z" fill="white"/>
<path d="M37 28.5562H30.2469V30.5167H37V28.5562Z" fill="white"/>
<path d="M12.57 37.7817L11.1837 36.3954L6.40857 41.1705L7.7949 42.5568L12.57 37.7817Z" fill="white"/>
<path d="M26.4501 21.2405L27.8366 22.6266L32.6111 17.8508L31.2246 16.4647L26.4501 21.2405Z" fill="white"/>
<path d="M6.46442 17.8216L11.2396 22.5967L12.6259 21.2104L7.85075 16.4352L6.46442 17.8216Z" fill="white"/>
<path d="M32.6072 41.1853L27.8321 36.4102L26.4457 37.7965L31.2209 42.5716L32.6072 41.1853Z" fill="white"/>
</svg>
