<svg width="40" height="60" viewBox="0 0 40 60" fill="none" xmlns="http://www.w3.org/2000/svg">
<path d="M14.9583 54.7837C22.0765 56.1648 28.2385 50.7465 28.2385 43.8407C28.2385 40.2285 26.4324 36.935 23.6701 34.9164V10.587C23.6701 6.97478 20.8016 4 17.0831 4C13.4709 4 10.4961 6.97478 10.4961 10.587V34.9164C7.2026 37.36 5.29024 41.5034 6.24642 46.1781C7.09636 50.4277 10.6023 53.9337 14.9583 54.7837ZM11.8772 36.935L12.8334 36.1913V10.6932C12.8334 8.35592 14.7458 6.54981 16.9769 6.54981C19.3142 6.54981 21.2265 8.46216 21.2265 10.6932V36.1913L22.1827 36.935C24.4138 38.5286 25.6887 41.1847 25.6887 43.947C25.6887 46.2843 24.7325 48.5154 23.1389 50.109C21.439 51.7026 19.3142 52.6588 16.9769 52.6588C12.6209 52.6588 9.2212 49.5778 8.4775 45.7531C7.94629 42.2471 9.2212 38.8474 11.8772 36.935Z" fill="white"/>
<path d="M17.0831 50.109C18.783 50.109 20.3766 49.4715 21.5453 48.3029C22.7139 47.1342 23.3514 45.5406 23.3514 43.8407C23.3514 39.591 19.7391 38.2099 18.783 37.3599V19.405H15.277V37.3599C14.5333 38.2099 9.85864 39.9097 10.9211 45.1156C11.4523 47.8779 13.8958 50.109 17.0831 50.109Z" fill="white"/>
<path d="M32.4882 11.2246H26.4324V13.6682H32.4882C33.1257 13.6682 33.6569 13.137 33.6569 12.4995C33.7631 11.7558 33.2319 11.2246 32.4882 11.2246Z" fill="white"/>
<path d="M31.3196 18.8741C31.3196 18.2367 30.7883 17.7054 30.1509 17.7054H26.5387V20.149H30.1509C30.7883 20.0428 31.3196 19.5116 31.3196 18.8741Z" fill="white"/>
<path d="M33.7631 25.2486C33.7631 24.6112 33.2319 24.08 32.5945 24.08H26.5387V26.5235H32.5945C33.2319 26.5235 33.7631 25.8861 33.7631 25.2486Z" fill="white"/>
</svg>
