<svg width="40" height="60" viewBox="0 0 40 60" fill="none" xmlns="http://www.w3.org/2000/svg">
<path d="M26.1239 29.5001C26.1239 32.7311 23.5047 35.35 20.274 35.35C17.0431 35.35 14.4242 32.7311 14.4242 29.5001C14.4242 26.2695 17.0431 23.6503 20.274 23.6503C23.5047 23.6503 26.1239 26.2695 26.1239 29.5001Z" fill="white"/>
<path d="M20.2741 42.1499C16.9168 42.1583 13.6953 40.8264 11.3243 38.4502C11.0226 38.1144 10.9148 37.647 11.0397 37.2132C11.1642 36.779 11.5032 36.44 11.9371 36.3154C12.3713 36.1906 12.8386 36.2983 13.1744 36.6C15.0518 38.4931 17.6079 39.5583 20.2743 39.5583C22.9406 39.5583 25.4963 38.4931 27.3741 36.6C27.71 36.2983 28.1773 36.1906 28.6111 36.3154C29.045 36.4399 29.3844 36.7789 29.5089 37.2132C29.6334 37.6471 29.526 38.1144 29.2239 38.4502C26.8527 40.8263 23.6311 42.1583 20.2741 42.1499H20.2741Z" fill="white"/>
<path d="M12.2742 22.8004C11.9321 22.7959 11.607 22.6515 11.3744 22.4004C11.1341 22.1524 10.9999 21.8207 10.9999 21.4755C10.9999 21.1302 11.1341 20.7985 11.3744 20.5506C13.7425 18.1856 16.9522 16.8572 20.2993 16.8572C23.646 16.8572 26.8558 18.1856 29.2238 20.5506C29.5259 20.8864 29.6333 21.3538 29.5088 21.7876C29.3843 22.2215 29.0449 22.5608 28.611 22.6854C28.1771 22.8099 27.7098 22.7024 27.374 22.4004C25.4858 20.5269 22.9339 19.4757 20.2742 19.4757C17.6141 19.4757 15.0622 20.5268 13.1743 22.4004C12.9494 22.662 12.6191 22.8088 12.2742 22.8004L12.2742 22.8004Z" fill="white"/>
<path d="M20.274 47.2498C17.9422 47.2564 15.6324 46.8002 13.478 45.9077C11.3237 45.0149 9.36822 43.7039 7.72415 42.0501C7.45699 41.8098 7.30005 41.4701 7.29063 41.1105C7.28087 40.7513 7.41967 40.4036 7.67393 40.1493C7.92783 39.8954 8.27555 39.7566 8.6348 39.7664C8.99437 39.7758 9.33407 39.9327 9.57433 40.1999C11.4486 42.0849 13.7877 43.4413 16.355 44.1318C18.9219 44.822 21.6258 44.822 24.1931 44.1318C26.76 43.4413 29.0992 42.0849 30.9738 40.1999C31.2141 39.9327 31.5538 39.7758 31.913 39.7664C32.2726 39.7566 32.62 39.8954 32.8743 40.1493C33.1285 40.4036 33.267 40.7513 33.2575 41.1105C33.2481 41.4701 33.0912 41.8098 32.8237 42.0501C31.18 43.7039 29.2241 45.0149 27.0701 45.9077C24.9158 46.8002 22.606 47.2564 20.2741 47.2498H20.274Z" fill="white"/>
<path d="M31.8738 19.2004C31.5316 19.1959 31.2066 19.0515 30.974 18.8004C28.1242 15.9664 24.2683 14.3756 20.2492 14.3756C16.2301 14.3756 12.3745 15.9663 9.52447 18.8004C9.28417 19.0679 8.94447 19.2249 8.5852 19.2343C8.22593 19.2437 7.87825 19.1052 7.62397 18.851C7.36969 18.5967 7.23127 18.2494 7.24068 17.8897C7.25044 17.5305 7.40739 17.1908 7.67454 16.9505C11.0101 13.6358 15.5218 11.7755 20.2243 11.7755C24.927 11.7755 29.4383 13.6358 32.774 16.9505C33.0139 17.1985 33.1482 17.5301 33.1482 17.8754C33.1482 18.2206 33.0139 18.5523 32.774 18.8003C32.5473 19.0597 32.218 19.2059 31.8738 19.2003L31.8738 19.2004Z" fill="white"/>
<path d="M20.274 51.9997C17.3189 52.0053 14.3925 51.4246 11.6634 50.2918C8.93439 49.1589 6.45677 47.4964 4.37423 45.4C4.07255 45.0641 3.96478 44.5968 4.08929 44.163C4.21414 43.7288 4.55314 43.3898 4.98703 43.2652C5.42125 43.1404 5.88862 43.2481 6.22442 43.5502C8.06411 45.4042 10.253 46.8756 12.6644 47.8794C15.0757 48.8834 17.6618 49.4003 20.274 49.3999C22.8876 49.4115 25.4772 48.9002 27.8904 47.8953C30.3031 46.8905 32.4905 45.4132 34.3237 43.5501C34.6596 43.248 35.1269 43.1403 35.5607 43.2651C35.9946 43.3896 36.3339 43.7286 36.4585 44.1629C36.583 44.5968 36.4756 45.0641 36.1735 45.3999C34.098 47.5054 31.6218 49.1742 28.8914 50.3077C26.1605 51.4412 23.2306 52.0164 20.2741 51.9996L20.274 51.9997Z" fill="white"/>
<path d="M5.27438 15.8505C4.93225 15.846 4.60684 15.7016 4.37422 15.4505C4.13427 15.2025 4 14.8709 4 14.5256C4 14.1803 4.13427 13.8487 4.37422 13.6007C7.16229 10.804 10.6384 8.79199 14.4526 7.768C18.2668 6.744 22.2827 6.744 26.0961 7.768C29.9095 8.79199 33.3859 10.804 36.1735 13.6007C36.4755 13.9366 36.583 14.4039 36.4584 14.8377C36.3339 15.2716 35.9946 15.611 35.5607 15.7355C35.1268 15.86 34.6595 15.7526 34.3237 15.4506C32.4836 13.5965 30.2951 12.1251 27.8837 11.121C25.4724 10.1173 22.8859 9.60042 20.2741 9.60078C17.6605 9.58892 15.0705 10.1006 12.6577 11.1054C10.2447 12.1098 8.05721 13.5876 6.2244 15.4506C5.96666 15.6948 5.62905 15.8367 5.27433 15.8507L5.27438 15.8505Z" fill="white"/>
</svg>
