<svg width="40" height="60" viewBox="0 0 40 60" fill="none" xmlns="http://www.w3.org/2000/svg">
<g clip-path="url(#clip0_34_10)">
<path fill-rule="evenodd" clip-rule="evenodd" d="M26.052 47.0449L30.3639 46.698C30.3639 47.9254 29.3978 48.9998 28.2075 49.0956C27.0197 49.1921 26.052 48.2708 26.052 47.0449ZM23.8586 45.7562V44.816C23.8586 44.4786 24.1367 44.1795 24.4815 44.1521L31.7769 43.5321C32.12 43.5023 32.4005 43.7534 32.4005 44.0916V45.0311C32.4005 45.3677 32.12 45.6675 31.7769 45.695L24.4815 46.3142C24.1367 46.344 23.8586 46.0937 23.8586 45.7562ZM23.8562 42.4263V40.8982C23.8562 40.56 24.1367 40.2618 24.4807 40.2335L31.936 40.1896C32.2808 40.1613 32.5589 40.4117 32.5589 40.7483V41.6901C32.5589 42.0268 32.2808 42.3242 31.936 42.3533L24.4807 42.9858C24.1367 43.0149 23.8562 42.7645 23.8562 42.4263ZM22.424 36.9758L22.3935 36.8784C22.3886 36.7215 22.383 36.5637 22.3758 36.4068L22.3476 36.3095C22.3348 35.8927 22.3155 35.4768 22.289 35.0624C21.9466 31.0583 20.8688 27.095 19.2566 23.1089H37.1529C35.5407 27.095 34.4629 31.0583 34.1213 35.0624C34.0948 35.4768 34.0755 35.8927 34.0626 36.3095L34.0345 36.4068C34.0273 36.5637 34.0216 36.7215 34.0168 36.8784L33.9863 36.9758C33.6391 38.295 32.5251 39.2031 31.2576 39.2031C31.2223 39.2031 31.1733 39.2031 31.1355 39.2007H25.2748C25.237 39.2031 25.188 39.2031 25.1526 39.2031C23.8852 39.2031 22.7712 38.295 22.424 36.9758ZM16.7248 17.6137C16.507 17.1907 16.3857 16.6923 16.4146 16.2191L16.413 16.2152C16.3133 13.5131 18.9399 11.7096 22.8243 10.7223C24.2259 10.3613 26.1814 10.136 28.1489 10.1282H28.2606C30.2281 10.136 32.1835 10.3613 33.586 10.7223C37.4704 11.7096 40.0969 13.5131 39.9973 16.2152L39.9957 16.2191C40.0246 16.6923 39.9032 17.1907 39.6854 17.6137C39.1011 18.754 38.5522 19.8897 38.0442 21.0221H18.3652C17.8573 19.8897 17.3083 18.754 16.7248 17.6137Z" fill="white"/>
<path fill-rule="evenodd" clip-rule="evenodd" d="M5.44929 23.4584L7.88634 23.2849C7.88634 23.8986 7.34033 24.4358 6.66759 24.4837C5.99621 24.532 5.44929 24.0713 5.44929 23.4584ZM4.20964 22.814V22.3439C4.20964 22.1752 4.36682 22.0257 4.56169 22.0119L8.68491 21.7019C8.87887 21.687 9.0374 21.8126 9.0374 21.9817V22.4514C9.0374 22.6198 8.87887 22.7697 8.68491 22.7834L4.56169 23.093C4.36682 23.1079 4.20964 22.9828 4.20964 22.814ZM4.20828 21.1491V20.385C4.20828 20.2159 4.36682 20.0668 4.56123 20.0527L8.77485 20.0307C8.96972 20.0166 9.12689 20.1417 9.12689 20.3101V20.781C9.12689 20.9493 8.96972 21.098 8.77485 21.1126L4.56123 21.4288C4.36682 21.4434 4.20828 21.3182 4.20828 21.1491ZM3.39881 18.4238L3.38155 18.3751C3.37882 18.2967 3.37564 18.2178 3.37155 18.1393L3.35566 18.0906C3.34839 17.8823 3.33749 17.6743 3.3225 17.4671C3.12899 15.4651 2.51984 13.4834 1.60861 11.4904H11.7234C10.8122 13.4834 10.203 15.4651 10.01 17.4671C9.99496 17.6743 9.98406 17.8823 9.97679 18.0906L9.96089 18.1393C9.9568 18.2178 9.95362 18.2967 9.9509 18.3751L9.93364 18.4238C9.7374 19.0834 9.10781 19.5374 8.39146 19.5374C8.37147 19.5374 8.34377 19.5374 8.32242 19.5363H5.01003C4.98868 19.5374 4.96097 19.5374 4.94099 19.5374C4.22463 19.5374 3.59504 19.0834 3.39881 18.4238ZM0.177729 8.74276C0.0546275 8.53126 -0.013964 8.28208 0.002389 8.04546C-0.0539379 6.69441 1.42964 5.7907 3.62503 5.29705C4.41724 5.11655 5.52243 5.00393 6.63443 5H6.69757C7.80957 5.00393 8.91476 5.11655 9.70742 5.29705C11.9028 5.7907 13.3873 6.69245 13.331 8.0435C13.3473 8.28012 13.2778 8.53126 13.1547 8.74276C12.8245 9.31293 12.5142 9.88074 12.2271 10.447H1.10485C0.817766 9.88074 0.507514 9.31293 0.177729 8.74276Z" fill="white" fill-opacity="0.8"/>
<path fill-rule="evenodd" clip-rule="evenodd" d="M10.5779 54.1192L13.0151 53.9275C13.0151 54.6058 12.469 55.1996 11.7962 55.2525C11.1248 55.3059 10.5779 54.7967 10.5779 54.1192ZM9.33815 53.4071V52.8875C9.33815 52.701 9.49533 52.5357 9.69022 52.5206L13.8137 52.1779C14.0076 52.1615 14.1662 52.3002 14.1662 52.4872V53.0063C14.1662 53.1924 14.0076 53.3581 13.8137 53.3732L9.69022 53.7154C9.49533 53.7319 9.33815 53.5936 9.33815 53.4071ZM9.33679 51.5668V50.7224C9.33679 50.5355 9.49533 50.3707 9.68976 50.355L13.9036 50.3308C14.0985 50.3151 14.2557 50.4535 14.2557 50.6396V51.16C14.2557 51.3461 14.0985 51.5105 13.9036 51.5265L9.68976 51.8761C9.49533 51.8921 9.33679 51.7538 9.33679 51.5668ZM8.52727 48.5547L8.51001 48.5009C8.50729 48.4142 8.50411 48.327 8.50002 48.2403L8.48412 48.1865C8.47685 47.9562 8.46595 47.7263 8.45096 47.4973C8.25743 45.2845 7.64825 43.0943 6.73698 40.8915H16.8523C15.941 43.0943 15.3319 45.2845 15.1388 47.4973C15.1238 47.7263 15.1129 47.9562 15.1056 48.1865L15.0897 48.2403C15.0856 48.327 15.0825 48.4142 15.0797 48.5009L15.0625 48.5547C14.8662 49.2838 14.2366 49.7856 13.5202 49.7856C13.5002 49.7856 13.4725 49.7856 13.4512 49.7843H10.1386C10.1172 49.7856 10.0895 49.7856 10.0695 49.7856C9.35315 49.7856 8.72352 49.2838 8.52727 48.5547ZM5.30601 37.8546C5.1829 37.6209 5.11431 37.3454 5.13066 37.0839L5.12975 37.0817C5.07342 35.5885 6.55799 34.5918 8.7535 34.0462C9.54576 33.8467 10.651 33.7222 11.7631 33.7179H11.8262C12.9383 33.7222 14.0435 33.8467 14.8362 34.0462C17.0317 34.5918 18.5163 35.5885 18.46 37.0817L18.4591 37.0839C18.4754 37.3454 18.4068 37.6209 18.2837 37.8546C17.9535 38.4848 17.6432 39.1124 17.3561 39.7382H6.23319C5.94609 39.1124 5.63582 38.4848 5.30601 37.8546Z" fill="white" fill-opacity="0.6"/>
</g>
<defs>
<clipPath id="clip0_34_10">
<rect width="40" height="60" fill="white"/>
</clipPath>
</defs>
</svg>
